<svg xmlns="http://www.w3.org/2000/svg" version="1.1" xmlns:xlink="http://www.w3.org/1999/xlink" xmlns:svgjs="http://svgjs.com/svgjs" width="375" height="200" preserveAspectRatio="none" viewBox="0 0 375 200"><g mask="url(&quot;#SvgjsMask1452&quot;)" fill="none"><rect width="375" height="200" x="0" y="0" fill="url(#SvgjsLinearGradient1453)"></rect><path d="M425.09 140.34C385.19 135.61 373.11 54.46 294.73 46.34 216.34 38.22 202.86-33.38 164.36-36.82" stroke="rgba(51,121,194,0.58)" stroke-width="2"></path><path d="M415.32 45.65C364.37 48.58 305.09 142.27 235.15 141.65 165.22 141.03 185.25-0.9 145.07-26.65" stroke="rgba(51,121,194,0.58)" stroke-width="2"></path><path d="M407.49 167.67C369.11 166.17 351.66 112.24 267.82 103.67 183.99 95.1 174.17-12.43 128.16-21.05" stroke="rgba(51,121,194,0.58)" stroke-width="2"></path><path d="M398.63 39.69C355.55 43.4 326.79 131.96 252.18 131.69 177.57 131.42 156.52-5.16 105.73-17.48" stroke="rgba(51,121,194,0.58)" stroke-width="2"></path><path d="M389.2 78.49C358.01 80.62 338.88 141.99 280.58 140.49 222.28 138.99 214.41 10.39 171.96-6.53" stroke="rgba(51,121,194,0.58)" stroke-width="2"></path></g><defs><mask id="SvgjsMask1452"><rect width="375" height="200" fill="#ffffff"></rect></mask><linearGradient x1="88.33%" y1="121.87%" x2="11.67%" y2="-21.87%" gradientUnits="userSpaceOnUse" id="SvgjsLinearGradient1453"><stop stop-color="#0e2a47" offset="0"></stop><stop stop-color="rgba(14, 42, 71, 1)" offset="1"></stop></linearGradient></defs></svg>